<?xml version="1.0" encoding="UTF-8"?>
<svg version="1.1" xmlns="http://www.w3.org/2000/svg" width="1536" height="1024">
<path d="M0 0 C1.88319946 -0.00542571 3.76639468 -0.01255088 5.64958191 -0.02124023 C10.74443727 -0.03941932 15.83896733 -0.03242943 20.93382812 -0.01972389 C26.27216302 -0.00957263 31.61047072 -0.01899506 36.94880676 -0.02526855 C45.90895574 -0.03253686 54.86897265 -0.02297668 63.82910156 -0.00390625 C74.1851642 0.01788081 84.54091204 0.01079447 94.89696711 -0.01121187 C103.79655913 -0.02936533 112.69605643 -0.03192504 121.59566098 -0.0214572 C126.90768522 -0.01522456 132.21956146 -0.01438081 137.53157616 -0.02760315 C142.52300193 -0.03916089 147.5140216 -0.0311372 152.50540352 -0.00802612 C154.3363617 -0.0027395 156.1673541 -0.00425201 157.99829865 -0.01307678 C160.49881266 -0.0240174 162.9980275 -0.01028775 165.49845886 0.00964355 C166.22190481 0.00072067 166.94535076 -0.00820222 167.69071931 -0.0173955 C174.15347002 0.08244468 178.16032049 2.97698252 182.5929718 7.41482544 C183.13828049 7.95593964 183.68358917 8.49705383 184.24542236 9.05456543 C184.82072693 9.6354895 185.39603149 10.21641357 185.98876953 10.81494141 C186.61226791 11.43654144 187.2357663 12.05814148 187.87815857 12.69857788 C189.92343695 14.74017221 191.96146132 16.78884016 193.99926758 18.83789062 C195.42282724 20.26264313 196.84675757 21.68702536 198.27104187 23.11105347 C201.24711899 26.08869115 204.21981622 29.06964824 207.18994141 32.05322266 C211.0026355 35.88296003 214.82193357 39.70602738 218.64353657 43.52687263 C221.58025607 46.46386353 224.51436635 49.40344913 227.44759178 52.34392929 C228.85565223 53.75517696 230.26432362 55.16581533 231.67360878 56.57584 C233.63666503 58.54105617 235.59639806 60.50952441 237.55517578 62.47900391 C238.1406015 63.06397644 238.72602722 63.64894897 239.32919312 64.25164795 C243.51039937 68.46642434 244.64543245 70.41828433 244.88598633 76.33007812 C244.94657227 77.36777344 245.0071582 78.40546875 245.06958008 79.47460938 C244.22286394 83.62298594 241.7790046 85.20895205 238.44848633 87.51757812 C236.06033491 88.75891593 233.75591179 89.86482836 231.28833008 90.90820312 C230.59892838 91.20978333 229.90952667 91.51136353 229.19923401 91.82208252 C227.71091837 92.47213026 226.22068966 93.11781227 224.72875977 93.75952148 C220.66675196 95.50733622 216.61927691 97.28834723 212.56958008 99.06445312 C211.73063202 99.43135254 210.89168396 99.79825195 210.02731323 100.17626953 C201.28137088 104.00921189 192.6138952 108.00674888 183.94848633 112.01757812 C171.78354144 117.63884973 159.57962313 123.16053723 147.32348633 128.58007812 C135.34861241 133.87531878 123.41177514 139.24529021 111.51098633 144.70507812 C98.14730167 150.83496737 84.75153439 156.8864015 71.32879639 162.88621521 C61.27944785 167.3796725 51.23987626 171.89508093 41.20605469 176.4230957 C39.4939251 177.19553869 37.78176665 177.9679177 36.06958008 178.74023438 C35.21097885 179.12754227 34.35237762 179.51485016 33.46775818 179.91389465 C27.95896597 182.39564291 22.44109537 184.85606414 16.91685486 187.30322266 C13.12999926 188.98241389 9.34716718 190.67055427 5.56478882 192.35980225 C3.76748437 193.15986253 1.9684037 193.95594704 0.16738892 194.74761963 C-9.71075464 199.09183523 -18.85619491 203.61811818 -27.68188477 209.86303711 C-30.71384945 211.61117601 -32.13062437 212.16112251 -35.55151367 211.51757812 C-37.17141819 210.45250797 -37.17141819 210.45250797 -38.55151367 208.51757812 C-38.84828951 205.97237985 -38.96068356 203.67089775 -38.93919373 201.12486267 C-38.94457926 200.36573076 -38.9499648 199.60659886 -38.95551354 198.82446295 C-38.9698566 196.27270446 -38.96267377 193.72146012 -38.95556641 191.16967773 C-38.96126696 189.34311504 -38.96823 187.51655592 -38.97636414 185.69000244 C-38.99435325 180.72060779 -38.99311544 175.75138917 -38.98742175 170.78197169 C-38.98433574 166.63225261 -38.99041636 162.48256762 -38.9964605 158.33285338 C-39.0105253 148.5370591 -39.00893045 138.74135197 -38.99755859 128.94555664 C-38.98609728 118.84986684 -39.00011514 108.7544433 -39.02695507 98.65878862 C-39.04914215 89.98771164 -39.05574202 81.31671803 -39.04987866 72.64561468 C-39.04651243 67.46861852 -39.04890099 62.29179271 -39.06612968 57.11482048 C-39.08164274 52.24002609 -39.07759491 47.36562387 -39.05882454 42.49084473 C-39.05514957 40.70671728 -39.05821512 38.92256052 -39.06871033 37.13846016 C-39.12877129 26.0792045 -38.99102517 16.36672387 -31.36401367 7.64257812 C-22.79425283 -0.9922695 -11.24831907 -0.05441125 0 0 Z " fill="#31095E" transform="translate(689.551513671875,314.482421875)"/>
<path d="M0 0 C2.3643146 3.5464719 2.25702708 5.04780234 2.27415466 9.25379944 C2.28412979 10.56449402 2.29410492 11.8751886 2.30438232 13.2256012 C2.30527817 14.68173206 2.30594172 16.13786308 2.30639648 17.59399414 C2.31401683 19.12499395 2.32244411 20.65598992 2.33161926 22.1869812 C2.35359248 26.3505727 2.36236775 30.51409072 2.36744571 34.67773366 C2.37108808 37.28110516 2.37732774 39.88445741 2.3844471 42.48782158 C2.40895818 51.57676921 2.42199561 60.66565969 2.42553711 69.75463867 C2.42916647 78.21443922 2.45901434 86.67387563 2.50094169 95.13356501 C2.53570288 102.40337328 2.55108661 109.67306133 2.55178314 116.9429521 C2.55257443 121.2816653 2.56124334 125.62000828 2.58978081 129.95863533 C2.61605932 134.04555848 2.61811274 138.13180725 2.60212517 142.2187767 C2.60031799 143.7126596 2.60693499 145.20658211 2.62294388 146.70038033 C2.72125992 156.47652731 1.93757205 164.67425106 -4.97690678 172.13232517 C-11.60573418 178.43664796 -18.95910906 181.12122537 -28.08625126 181.12863445 C-29.09347424 181.1318589 -30.10069721 181.13508335 -31.1384421 181.1384055 C-32.23785157 181.1368569 -33.33726105 181.1353083 -34.46998596 181.13371277 C-36.23013004 181.1371111 -36.23013004 181.1371111 -38.02583259 181.14057809 C-41.27907568 181.14581309 -44.53228401 181.14656301 -47.78552997 181.14538372 C-51.29543953 181.14517961 -54.80534086 181.15069932 -58.31524658 181.15544128 C-65.18936709 181.16374527 -72.06347903 181.16649598 -78.93760414 181.16705366 C-84.52336003 181.1675288 -90.10911309 181.16958342 -95.69486809 181.17275429 C-111.52693678 181.18155901 -127.35899869 181.18617377 -143.19106985 181.18542381 C-144.04445967 181.18538386 -144.89784949 181.1853439 -145.77709961 181.18530273 C-147.05874414 181.18524141 -147.05874414 181.18524141 -148.36628049 181.18517885 C-162.22427147 181.1847721 -176.08223532 181.19434952 -189.94021846 181.2084411 C-204.1649941 181.22279176 -218.38975649 181.22971206 -232.61453956 181.22884732 C-240.60259678 181.22851497 -248.59062552 181.23127889 -256.57867622 181.24202538 C-263.37722699 181.251113 -270.17573636 181.25331987 -276.97429056 181.24651595 C-280.4441314 181.24324235 -283.91389275 181.24322426 -287.38372612 181.2518692 C-291.14155531 181.25953481 -294.89917335 181.25498045 -298.65699768 181.24723816 C-299.75863788 181.25238172 -300.86027807 181.25752529 -301.99530131 181.26282471 C-302.99991654 181.25822592 -304.00453177 181.25362712 -305.03958988 181.24888897 C-306.34100283 181.24921502 -306.34100283 181.24921502 -307.66870695 181.24954766 C-310.23331758 180.97502508 -311.83652929 180.39254138 -314 179 C-315 176.703125 -315 176.703125 -315 174 C-313.375 171.421875 -313.375 171.421875 -311 168.75 C-308.05262413 165.40904434 -305.51875076 162.21990397 -303.1875 158.4375 C-297.96642867 151.66095939 -289.17787505 148.7578291 -281.62695312 145.24414062 C-277.69041002 143.3797704 -273.84487536 141.35776242 -270 139.3125 C-269.23268555 138.90717041 -268.46537109 138.50184082 -267.67480469 138.08422852 C-263.04296404 135.63259881 -258.42566757 133.15453383 -253.8125 130.66796875 C-240.58581573 123.54330813 -227.30686361 116.54120335 -213.9375 109.6875 C-213.18121307 109.2997641 -212.42492615 108.9120282 -211.64572144 108.51254272 C-210.14555632 107.74352037 -208.64537854 106.97452271 -207.14518738 106.20555115 C-206.42438492 105.83607864 -205.70358246 105.46660614 -204.9609375 105.0859375 C-204.25443558 104.72383682 -203.54793365 104.36173615 -202.82002258 103.98866272 C-192.44500829 98.66812089 -182.13477637 93.23136092 -171.87109375 87.69921875 C-158.6246864 80.56447072 -145.32657573 73.55130862 -131.9375 66.6875 C-131.18121307 66.2997641 -130.42492615 65.9120282 -129.64572144 65.51254272 C-128.14555632 64.74352037 -126.64537854 63.97452271 -125.14518738 63.20555115 C-124.42438492 62.83607864 -123.70358246 62.46660614 -122.9609375 62.0859375 C-122.25443558 61.72383682 -121.54793365 61.36173615 -120.82002258 60.98866272 C-110.44500829 55.66812089 -100.13477637 50.23136092 -89.87109375 44.69921875 C-74.40362976 36.36817055 -58.84006063 28.24951733 -43.2052002 20.23713684 C-42.48908569 19.87013168 -41.77297119 19.50312653 -41.03515625 19.125 C-40.3325769 18.76496384 -39.62999756 18.40492767 -38.90612793 18.03398132 C-33.21357157 15.11461255 -27.536019 12.1676284 -21.875 9.1875 C-20.83073853 8.63872192 -20.83073853 8.63872192 -19.76538086 8.07885742 C-18.79483765 7.56609253 -18.79483765 7.56609253 -17.8046875 7.04296875 C-17.18948242 6.7186084 -16.57427734 6.39424805 -15.94042969 6.06005859 C-14.50899924 5.27806677 -13.09529533 4.46341786 -11.69238281 3.63134766 C-10.51820801 2.94177979 -10.51820801 2.94177979 -9.3203125 2.23828125 C-8.26094482 1.59886597 -8.26094482 1.59886597 -7.18017578 0.9465332 C-4.56495946 -0.18887482 -2.82133874 -0.39222634 0 0 Z " fill="#31095F" transform="translate(969,476)"/>
<path d="M0 0 C3.35083024 1.37079419 4.68326523 2.49780932 6.61572266 5.56176758 C8.33721154 9.83755735 8.43278309 13.32675738 8.3984375 17.88671875 C8.40130768 18.74320511 8.40417786 19.59969147 8.40713501 20.48213196 C8.40917181 22.29676982 8.40366881 24.11142982 8.39111328 25.92602539 C8.37531124 28.63416087 8.39083933 31.34074415 8.41015625 34.04882812 C8.43226595 51.80109362 5.89753194 68.26376072 0 85 C-0.35707031 86.08410156 -0.71414063 87.16820312 -1.08203125 88.28515625 C-10.3044752 114.58378616 -30.51661202 138.0105854 -53 154 C-53.59925293 154.42619629 -54.19850586 154.85239258 -54.81591797 155.29150391 C-88.93798886 179.27040137 -128.0396912 190.87534216 -167.48535156 202.88146973 C-215.78696954 217.60658209 -264.29417087 236.83255451 -301.28125 272.3984375 C-303.52619669 274.54661925 -305.80705922 276.56935316 -308.1875 278.5625 C-320.11877472 288.94620352 -329.52424632 302.21318053 -338.875 314.875 C-339.57544434 315.82246094 -339.57544434 315.82246094 -340.29003906 316.7890625 C-342.64821702 320.01766292 -344.7640954 323.23769595 -346.6875 326.75 C-349.20254726 330.28466101 -350.68338402 331.49096974 -354.76953125 332.65625 C-362.46556614 333.84232893 -368.35417509 331.99310466 -374.79296875 327.734375 C-379.38174517 324.12832769 -381.55347873 321.02651962 -382.8125 315.3125 C-382.37203206 308.96242047 -377.65662573 303.90822246 -374 299 C-373.31421875 298.05125 -372.6284375 297.1025 -371.921875 296.125 C-370.06886069 293.59941013 -368.18059594 291.10700753 -366.26025391 288.63232422 C-365.41139124 287.53284809 -364.57003337 286.42754153 -363.73583984 285.31689453 C-356.3502543 275.50684481 -348.0338981 266.73974864 -339.375 258.0625 C-338.58186401 257.26412216 -338.58186401 257.26412216 -337.77270508 256.44961548 C-330.85188721 249.50345989 -323.71479316 243.07272959 -316 237 C-314.88125345 236.09536978 -313.76271617 235.19048059 -312.64453125 234.28515625 C-305.05779298 228.33087476 -297.15268598 223.15702179 -288.90625 218.1640625 C-287.14381076 217.08781886 -285.399136 215.98262848 -283.65625 214.875 C-275.99533101 210.02055628 -268.12544056 205.87118498 -259.96142578 201.94824219 C-258.1417101 201.06850909 -256.33394923 200.1641635 -254.52734375 199.2578125 C-243.62261584 193.92224101 -232.24759186 189.95217867 -220.79052734 185.97216797 C-218.5591526 185.1947984 -216.33472231 184.40273818 -214.11328125 183.59765625 C-197.56476467 177.78119539 -180.33005924 173.74318344 -163.28515625 169.6484375 C-121.48208547 159.57300901 -80.74543237 147.77610619 -49 117 C-48.53094238 116.54705566 -48.06188477 116.09411133 -47.57861328 115.62744141 C-28.03564063 96.47107554 -15.16316941 69.66679594 -14.81118774 42.08407593 C-14.80388641 41.23906525 -14.79658508 40.39405457 -14.7890625 39.5234375 C-14.76101685 37.7005115 -14.73235258 35.87759493 -14.703125 34.0546875 C-14.66177385 31.20638062 -14.6248459 28.35825452 -14.59863281 25.50976562 C-14.57102358 22.74313041 -14.52518623 19.97727255 -14.4765625 17.2109375 C-14.47330963 16.36187836 -14.47005676 15.51281921 -14.46670532 14.63803101 C-14.3473068 8.8875224 -13.35019831 5.43413396 -9.25 1.1875 C-5.99828436 -0.52868326 -3.62539838 -0.38162088 0 0 Z " fill="#320B60" transform="translate(967,332)"/>
<path d="M0 0 C3.32764294 1.58790649 5.71493319 3.36821842 8.4375 5.875 C9.75427734 7.0815625 9.75427734 7.0815625 11.09765625 8.3125 C12.05542969 9.199375 13.01320313 10.08625 14 11 C15.04012574 11.95859256 16.08049691 12.91691886 17.12109375 13.875 C19.31860896 15.89997204 21.51361333 17.92762219 23.70703125 19.95703125 C27.79218042 23.73504439 31.89460962 27.49400455 36 31.25 C38.10993757 33.18131852 40.21293491 35.11991174 42.3125 37.0625 C42.85640381 37.56450928 43.40030762 38.06651855 43.96069336 38.58374023 C45.00209502 39.54514396 46.0420537 40.50811392 47.08032227 41.47290039 C49.31337497 43.53132232 51.46423345 45.30948896 54 47 C54 47.66 54 48.32 54 49 C53.18660156 49.02505615 52.37320313 49.0501123 51.53515625 49.07592773 C34.01867835 49.61900751 16.507998 50.22314348 -1 51 C-1.15780239 33.97487508 -0.67508229 17.0099191 0 0 Z " fill="#010002" transform="translate(852,334)"/>
<path d="M0 0 C2.8125 1.0625 2.8125 1.0625 5 3 C6.57695152 6.6338448 7.20538508 8.96032658 6.43359375 12.8671875 C4.5647759 16.95108919 2.07607289 19.03396513 -1.375 21.8125 C-1.99769775 22.32586914 -2.62039551 22.83923828 -3.26196289 23.36816406 C-4.5425482 24.41658125 -5.8287955 25.45812064 -7.12060547 26.49267578 C-8.87880681 27.90279985 -10.61367601 29.33764622 -12.34765625 30.77734375 C-13.36730469 31.59332031 -14.38695312 32.40929687 -15.4375 33.25 C-16.34371094 33.97703125 -17.24992188 34.7040625 -18.18359375 35.453125 C-21.7219628 37.39652881 -24.01680166 37.42512094 -28 37 C-31.22083055 35.12606223 -33.495267 33.78819693 -34.546875 30.0625 C-34.79841024 26.37331644 -34.40574509 24.52746861 -32.125 21.5625 C-31.09421195 20.6952364 -30.05029942 19.84352906 -29 19 C-27.39172052 17.54620362 -25.78797919 16.08737929 -24.1875 14.625 C-7.0070142 -0.73758044 -7.0070142 -0.73758044 0 0 Z " fill="#330C60" transform="translate(1030,269)"/>
<path d="M0 0 C6.15154131 3.28341762 11.24429872 8.83888098 16.3046875 13.546875 C18.67682803 15.70586667 21.11696988 17.69186313 23.625 19.6875 C26.41093888 22.11876083 26.97986854 22.93854606 28.1875 26.625 C27.9784064 30.38868476 27.33890397 32.07637004 25 35 C21.24543433 37.50304378 19.45254066 37.45280074 15 37 C10.26413488 34.19552121 6.19132627 30.73147751 2.0625 27.125 C1.48048828 26.62097656 0.89847656 26.11695313 0.29882812 25.59765625 C-0.87413959 24.58186361 -2.04416708 23.56266555 -3.21118164 22.54003906 C-4.44286617 21.47965063 -5.69345004 20.44095291 -6.95874023 19.42089844 C-7.58852783 18.90817383 -8.21831543 18.39544922 -8.8671875 17.8671875 C-9.43937012 17.4119873 -10.01155273 16.95678711 -10.60107422 16.48779297 C-12.72700301 14.2268139 -13.14119628 12.00517662 -13.28125 8.96484375 C-12.80271617 5.62175324 -11.14667357 3.51467475 -9 1 C-5.78509882 -0.60745059 -3.5698929 -0.40305242 0 0 Z " fill="#350E61" transform="translate(909,269)"/>
<path d="M0 0 C3.04933997 0.6269671 4.3535139 1.8975398 6.08984375 4.4296875 C7.78050691 9.50167698 7.31516395 14.89052558 7.33007812 20.19873047 C7.3397777 22.29044456 7.37081137 24.38117287 7.40234375 26.47265625 C7.40887515 27.80989003 7.41412508 29.1471308 7.41796875 30.484375 C7.4319873 32.30171143 7.4319873 32.30171143 7.44628906 34.15576172 C7.05529844 37.74698379 6.26286308 39.57370105 4.08984375 42.4296875 C0.92165619 44.54181254 -1.04234877 44.76125214 -4.77734375 44.98828125 C-8.22986019 44.08405075 -9.68228829 42.15828369 -11.91015625 39.4296875 C-12.41076741 36.63684398 -12.61434106 34.46341701 -12.57421875 31.6796875 C-12.57900238 30.94395508 -12.58378601 30.20822266 -12.5887146 29.45019531 C-12.59210505 27.90036877 -12.58296217 26.35046989 -12.56201172 24.80078125 C-12.53522627 22.43586964 -12.56178042 20.07570248 -12.59375 17.7109375 C-12.59044574 16.20051042 -12.58403915 14.69008627 -12.57421875 13.1796875 C-12.5843399 12.4774707 -12.59446106 11.77525391 -12.60488892 11.05175781 C-12.51259865 7.16247489 -11.99986638 5.53992213 -9.51342773 2.48461914 C-6.07258791 -0.23145972 -4.21977519 -0.23872272 0 0 Z " fill="#340E61" transform="translate(968.91015625,238.5703125)"/>
<path d="M0 0 C-1.5830577 4.2742558 -4.50568404 6.26531794 -8 9 C-7.53918323 4.85264908 -4.48412936 0 0 0 Z " fill="#391D5A" transform="translate(664,319)"/>
<path d="M0 0 C-1.39332574 3.36720387 -2.9789286 4.9859524 -6 7 C-5.37162381 3.35541809 -4.14650034 0 0 0 Z " fill="#482B6A" transform="translate(960,333)"/>
</svg>
