<?xml version="1.0" encoding="UTF-8"?>
<svg version="1.1" xmlns="http://www.w3.org/2000/svg" width="1536" height="1024">
<path d="M0 0 C173.58 0 347.16 0 526 0 C526 163.68 526 327.36 526 496 C352.42 496 178.84 496 0 496 C0 332.32 0 168.64 0 0 Z " fill="#000000" transform="translate(505,248)"/>
<path d="M0 0 C1.8734949 -0.00542701 3.74698552 -0.01255292 5.62046814 -0.02124023 C10.68427434 -0.03940253 15.74775286 -0.03243677 20.81156445 -0.01972389 C26.119197 -0.00956539 31.42680233 -0.01899692 36.73443604 -0.02526855 C45.64153053 -0.03253412 54.54849211 -0.02298323 63.45556641 -0.00390625 C73.74973446 0.01788709 84.04358591 0.01078882 94.33774638 -0.01121187 C103.18640373 -0.02936505 112.03496581 -0.03192538 120.88363576 -0.0214572 C126.16434627 -0.01522528 131.44490791 -0.01437896 136.72560883 -0.02760315 C141.68668006 -0.03916073 146.64734271 -0.03113752 151.60836983 -0.00802612 C153.42804092 -0.00273971 155.24774643 -0.00425166 157.06740379 -0.01307678 C159.55254037 -0.02401806 162.03636991 -0.01028711 164.52142334 0.00964355 C165.59973266 -0.00374078 165.59973266 -0.00374078 166.699826 -0.0173955 C173.14461937 0.08277554 177.15159315 2.98999893 181.57124329 7.41482544 C182.11655197 7.95593964 182.66186066 8.49705383 183.22369385 9.05456543 C183.79899841 9.6354895 184.37430298 10.21641357 184.96704102 10.81494141 C185.5905394 11.43654144 186.21403778 12.05814148 186.85643005 12.69857788 C188.90170844 14.74017221 190.9397328 16.78884016 192.97753906 18.83789062 C194.40109872 20.26264313 195.82502906 21.68702536 197.24931335 23.11105347 C200.22539048 26.08869115 203.1980877 29.06964824 206.16821289 32.05322266 C209.98090699 35.88296003 213.80020506 39.70602738 217.62180805 43.52687263 C220.55852756 46.46386353 223.49263784 49.40344913 226.42586327 52.34392929 C227.83392372 53.75517696 229.24259511 55.16581533 230.65188026 56.57584 C232.61493652 58.54105617 234.57466954 60.50952441 236.53344727 62.47900391 C237.11887299 63.06397644 237.70429871 63.64894897 238.3074646 64.25164795 C242.54789576 68.52612475 243.60007367 70.4003347 243.73925781 76.39257812 C243.77664063 77.441875 243.81402344 78.49117188 243.85253906 79.57226562 C243.31525832 83.28886818 242.24029765 84.10209345 239.42675781 86.51757812 C236.97705078 87.86352539 236.97705078 87.86352539 234.16894531 89.08398438 C232.55137329 89.79711792 232.55137329 89.79711792 230.90112305 90.5246582 C229.71333252 91.03794678 228.52554199 91.55123535 227.30175781 92.08007812 C225.35600953 92.93402351 223.41185413 93.79153227 221.46769714 94.64909363 C220.06176064 95.2689771 218.65534301 95.88777029 217.24848938 96.50556946 C208.98286149 100.13892856 200.7660059 103.87920427 192.5453186 107.61282349 C178.43019329 114.02136962 164.29066417 120.37083925 150.11425781 126.64257812 C137.22446886 132.34529873 124.40104045 138.18080546 111.60464478 144.08987427 C100.21162761 149.34870881 88.77795039 154.50542075 77.30175781 159.58007812 C64.59083368 165.20079719 51.92681728 170.91475986 39.29541016 176.71194458 C29.7676691 181.08465743 20.22432203 185.41828888 10.65151978 189.6914978 C5.57325036 191.95938876 0.49941392 194.23716492 -4.57324219 196.51757812 C-5.46785156 196.91944336 -6.36246094 197.32130859 -7.28417969 197.73535156 C-15.37966209 201.3904491 -23.05486267 205.11009494 -30.27636719 210.36523438 C-32.57324219 211.51757812 -32.57324219 211.51757812 -35.24511719 211.38867188 C-37.57324219 210.51757812 -37.57324219 210.51757812 -39.57324219 207.51757812 C-39.77049007 205.02669902 -39.85155307 202.6473612 -39.84066772 200.15609741 C-39.84519884 199.40034349 -39.84972995 198.64458957 -39.85439837 197.86593401 C-39.8670893 195.32576288 -39.86541897 192.78580486 -39.86376953 190.24560547 C-39.86975206 188.42727379 -39.87655697 186.60894466 -39.88412476 184.7906189 C-39.90182507 179.84405549 -39.90648197 174.89756123 -39.90775633 169.95096922 C-39.90965413 165.82104403 -39.91701074 161.69113498 -39.92410052 157.561216 C-39.94039918 147.81342606 -39.94526832 138.06567308 -39.94384766 128.31787109 C-39.94264743 118.26875103 -39.96372209 108.21984617 -39.99533498 98.17078054 C-40.0215128 89.54134117 -40.03221424 80.91197199 -40.03093684 72.28249323 C-40.03042743 67.12955014 -40.03609838 61.976798 -40.05729294 56.8238945 C-40.0766993 51.97292181 -40.07678333 47.12232166 -40.06225967 42.2713356 C-40.0601731 40.49484461 -40.06486342 38.71833017 -40.07698059 36.94187927 C-40.1868442 19.71321078 -40.1868442 19.71321078 -35.57324219 12.51757812 C-34.7959375 11.28587891 -34.7959375 11.28587891 -34.00292969 10.02929688 C-24.86301445 -0.69517653 -13.05962507 -0.0636463 0 0 Z " fill="#30095E" transform="translate(649.5732421875,343.482421875)"/>
<path d="M0 0 C2.35581407 3.53372111 2.25887274 5.01408289 2.28088379 9.20237732 C2.29230408 10.50176743 2.30372437 11.80115753 2.31549072 13.1399231 C2.31798151 14.58343468 2.32023169 16.02694669 2.32226562 17.47045898 C2.33152309 18.98836245 2.34157256 20.50626127 2.35235596 22.02415466 C2.37861102 26.15274846 2.39149694 30.28127718 2.40037727 34.40994143 C2.40624197 36.99255734 2.41445253 39.57515554 2.42338562 42.15776253 C2.45074696 50.24690622 2.47007058 58.33600935 2.4777894 66.42519611 C2.48673248 75.74539568 2.52173773 85.06500593 2.57979059 94.3850264 C2.62314857 101.59796566 2.64320479 108.81073997 2.64587164 116.02380806 C2.64796033 120.32689289 2.65961291 124.62942421 2.69551086 128.93237114 C2.72868601 132.98819329 2.73268271 137.04305256 2.71523285 141.09896278 C2.71370292 142.57911652 2.72223378 144.05932425 2.74214935 145.53934479 C2.86371894 155.14557451 1.62029084 162.93463608 -4 171 C-12.18828444 179.10654999 -19.64476929 180.29832775 -30.82475281 180.26742554 C-32.0242435 180.27195665 -33.22373419 180.27648776 -34.45957309 180.28115618 C-37.78095817 180.29161615 -41.10212647 180.29312784 -44.42351258 180.29076743 C-48.00838081 180.29035885 -51.59321687 180.30140199 -55.17807007 180.31088257 C-62.19677105 180.32748147 -69.21543844 180.33299152 -76.23415741 180.33410732 C-81.93670177 180.33505785 -87.63923504 180.33916835 -93.34177589 180.34550858 C-109.50503146 180.36311408 -125.66826048 180.37234795 -141.83152571 180.37084763 C-142.70253482 180.37076772 -143.57354394 180.3706878 -144.47094727 180.37060547 C-145.77905255 180.37048283 -145.77905255 180.37048283 -147.1135842 180.37035771 C-161.26321485 180.36954389 -175.4127393 180.38870745 -189.56233921 180.4168822 C-204.08660063 180.44557534 -218.61081016 180.45942463 -233.13510066 180.45769465 C-241.29137811 180.45702975 -249.44754405 180.46256621 -257.60379601 180.48405075 C-264.54402153 180.50221514 -271.48408494 180.50664878 -278.42432388 180.4930319 C-281.96704193 180.48647949 -285.50944852 180.4864663 -289.05213737 180.5037384 C-292.88697049 180.52224335 -296.72134319 180.5099749 -300.55619812 180.49447632 C-301.68341473 180.50476344 -302.81063134 180.51505057 -303.97200602 180.52564943 C-304.99491388 180.51645184 -306.01782174 180.50725425 -307.0717268 180.49777794 C-307.95739966 180.49821267 -308.84307251 180.49864741 -309.75558394 180.49909532 C-312 180 -312 180 -313.84219676 178.12172091 C-315 176 -315 176 -314.453125 173.5546875 C-312.82675756 170.69542861 -311.00187223 168.52240139 -308.75 166.125 C-305.62278291 162.82902973 -305.62278291 162.82902973 -302.7409668 159.32446289 C-298.50421703 153.81464948 -293.48791257 151.2015921 -287.3125 148.1875 C-285.23544069 147.13979142 -283.15862096 146.09160777 -281.08203125 145.04296875 C-280.05158691 144.52911621 -279.02114258 144.01526367 -277.95947266 143.48583984 C-273.77381112 141.38437671 -269.63647247 139.19623493 -265.5 137 C-258.51088203 133.31239406 -251.50760201 129.65233831 -244.5 126 C-226.11771581 116.42188948 -226.11771581 116.42188948 -207.82421875 106.67578125 C-194.59447668 99.54688102 -181.31103882 92.54334374 -167.9375 85.6875 C-167.18121307 85.2997641 -166.42492615 84.9120282 -165.64572144 84.51254272 C-164.14555632 83.74352037 -162.64537854 82.97452271 -161.14518738 82.20555115 C-160.42438492 81.83607864 -159.70358246 81.46660614 -158.9609375 81.0859375 C-158.25443558 80.72383682 -157.54793365 80.36173615 -156.82002258 79.98866272 C-146.44500829 74.66812089 -136.13477637 69.23136092 -125.87109375 63.69921875 C-110.38911451 55.36035238 -94.81099758 47.23399434 -79.16098022 39.21502686 C-78.44141144 38.84629456 -77.72184265 38.47756226 -76.98046875 38.09765625 C-75.92226425 37.55543427 -75.92226425 37.55543427 -74.84268188 37.0022583 C-68.01499068 33.50066552 -61.2226145 29.93439205 -54.44140625 26.34375 C-51.14465675 24.59907329 -47.83828584 22.87384057 -44.52734375 21.15625 C-43.57037598 20.65947754 -42.6134082 20.16270508 -41.62744141 19.65087891 C-39.6835162 18.64194912 -37.73918677 17.63379775 -35.79443359 16.62646484 C-30.76461893 14.00865762 -25.77415636 11.33652309 -20.82421875 8.5703125 C-19.32725464 7.73669189 -19.32725464 7.73669189 -17.80004883 6.88623047 C-15.89229485 5.81906018 -13.98950188 4.74295773 -12.0925293 3.65673828 C-11.2344165 3.1770459 -10.37630371 2.69735352 -9.4921875 2.203125 C-8.74308105 1.77676758 -7.99397461 1.35041016 -7.22216797 0.91113281 C-4.59450409 -0.16626134 -2.81233254 -0.39012986 0 0 Z " fill="#30095E" transform="translate(928,505)"/>
<path d="M0 0 C3.69748901 2.55980008 6.47047183 4.74210046 8 9 C8.20523579 11.85779435 8.30405874 14.61485192 8.30078125 17.47265625 C8.30506638 18.30977646 8.3093515 19.14689667 8.31376648 20.00938416 C8.31951015 21.78888041 8.32000976 23.56840015 8.31567383 25.34790039 C8.31257161 28.00125508 8.33576636 30.65342864 8.36132812 33.30664062 C8.41861018 48.44943583 6.93669851 63.48948514 2.375 78 C1.99541138 79.22444824 1.99541138 79.22444824 1.6081543 80.47363281 C-11.78922827 121.85409775 -44.60889618 152.3415083 -82.5234375 171.87890625 C-108.7612909 185.07118243 -136.64489862 193.20996695 -164.66650391 201.67260742 C-193.04248034 210.2776276 -220.68315618 220.25283438 -247 234 C-248.41925781 234.73283203 -248.41925781 234.73283203 -249.8671875 235.48046875 C-269.00848739 245.61910979 -286.210267 258.20530822 -302 273 C-303.41105088 274.23560939 -304.82729443 275.46532817 -306.25 276.6875 C-313.14105183 282.71192868 -318.99848956 289.23892405 -324.70947266 296.39306641 C-326.07947023 298.09895442 -327.46631404 299.79015236 -328.85546875 301.48046875 C-334.73309431 308.67701355 -340.23648492 315.98382671 -345.25927734 323.80932617 C-348.21772613 328.30054078 -350.81935938 331.0977716 -356.17578125 332.6171875 C-363.34293374 333.48196275 -367.96599819 332.37251886 -373.6875 327.8984375 C-381.60432282 320.99370851 -381.60432282 320.99370851 -382.4140625 314.8671875 C-381.84145782 309.51927582 -379.48000868 306.41284808 -376.375 302.125 C-375.79250488 301.2992749 -375.21000977 300.4735498 -374.60986328 299.62280273 C-359.89394867 279.0499934 -342.51269329 259.17803673 -323 243 C-322.22293701 242.33629395 -322.22293701 242.33629395 -321.43017578 241.65917969 C-310.57739858 232.39614723 -299.12039596 224.50991173 -287 217 C-285.93942383 216.33339355 -285.93942383 216.33339355 -284.85742188 215.65332031 C-247.78926377 192.44558513 -206.12733415 180.51680061 -164.03173828 170.14550781 C-151.28713859 166.99572229 -138.61852842 163.70878456 -126.0625 159.8671875 C-125.03338501 159.55362305 -124.00427002 159.24005859 -122.94396973 158.91699219 C-95.50705408 150.35473807 -70.94913012 137.80583891 -50 118 C-49.16597656 117.23042969 -48.33195312 116.46085937 -47.47265625 115.66796875 C-34.68934284 103.47556351 -25.4445816 87.83468079 -19.6875 71.1875 C-19.34199097 70.213573 -19.34199097 70.213573 -18.98950195 69.2199707 C-13.95805877 53.70096888 -13.54741041 37.76697056 -13.63964844 21.6237793 C-13.64819827 19.13791649 -13.62663715 16.65368655 -13.6015625 14.16796875 C-13.61490631 13.41903854 -13.62825012 12.67010834 -13.64199829 11.89848328 C-13.58524036 7.896303 -13.15640676 6.19111634 -10.58740234 3.05200195 C-6.83493917 0.07602035 -4.80772415 -0.5547374 0 0 Z " fill="#30095E" transform="translate(926,361)"/>
<path d="M0 0 C1.32 0 2.64 0 4 0 C4.0825 0.61875 4.165 1.2375 4.25 1.875 C4.776093 4.15082717 4.776093 4.15082717 6.8125 4.90234375 C9.33404471 6.16761886 10.80972507 7.64700425 12.75 9.6875 C15.27703646 12.27921381 17.81300884 14.77086051 20.5625 17.125 C24.60355338 20.6001465 28.48783147 24.23011719 32.375 27.875 C41.94381915 37.20088659 41.94381915 37.20088659 52.26953125 45.61328125 C52.84058594 46.07089844 53.41164063 46.52851563 54 47 C54 47.66 54 48.32 54 49 C50.00644491 49.14777844 46.01272082 49.28973432 42.01879883 49.42724609 C40.02610561 49.4969027 38.03355567 49.5706225 36.04101562 49.64453125 C24.00566551 50.05449451 12.0675634 50 0 50 C0 33.5 0 17 0 0 Z " fill="#010001" transform="translate(821,367)"/>
<path d="M0 0 C1.75 1.1875 1.75 1.1875 3.75 4.1875 C4.29556871 7.25417043 4.26278416 10.11625018 3.75 13.1875 C1.8125 15.75 1.8125 15.75 -1.25 18.1875 C-2.60596885 19.4355448 -3.95993725 20.68576466 -5.3125 21.9375 C-21.03063725 35.82979303 -21.03063725 35.82979303 -27.0625 36.5 C-30.9807645 36.11585642 -32.46293267 34.89493683 -35.25 32.1875 C-36.65005838 29.38738325 -36.70103464 26.89681525 -36.33984375 23.82421875 C-34.08072433 18.35860724 -28.47758759 14.93910168 -23.87548828 11.44042969 C-21.71451438 9.77474659 -19.66673605 7.99643997 -17.625 6.1875 C-17.03460937 5.671875 -16.44421875 5.15625 -15.8359375 4.625 C-14.2189295 3.19844046 -14.2189295 3.19844046 -12.7265625 1.5625 C-9.2479446 -1.67684788 -4.26525969 -1.54023267 0 0 Z " fill="#300A5D" transform="translate(991.25,298.8125)"/>
<path d="M0 0 C6.47150456 3.93093343 11.93513401 9.58494836 17.47265625 14.6953125 C19.48336493 16.52887992 21.51226878 18.28752241 23.625 20 C26 22 26 22 27 24 C27.58394161 31.24087591 27.58394161 31.24087591 25.125 34.4375 C21.55787936 37.06038283 19.44923097 37.57675216 15 37 C12.03272407 35.3783492 9.56689344 33.18691237 7 31 C5.85027868 30.03513449 4.7005375 29.07029264 3.55078125 28.10546875 C-11.54159849 15.34655443 -11.54159849 15.34655443 -13 11.0625 C-13 7.22476157 -12.10300954 5.1907731 -10 2 C-6.81554568 -0.41579293 -3.89103227 -0.66074133 0 0 Z " fill="#300A5C" transform="translate(868,298)"/>
<path d="M0 0 C0.639375 -0.01289063 1.27875 -0.02578125 1.9375 -0.0390625 C5.27632679 1.03593855 6.79681762 2.93757231 9 5.625 C9.50061116 8.41784352 9.70418481 10.59127049 9.6640625 13.375 C9.66884613 14.11073242 9.67362976 14.84646484 9.67855835 15.60449219 C9.6819488 17.15431873 9.67280592 18.70421761 9.65185547 20.25390625 C9.62507002 22.61881786 9.65162417 24.97898502 9.68359375 27.34375 C9.68028949 28.85417708 9.6738829 30.36460123 9.6640625 31.875 C9.67418365 32.5772168 9.68430481 33.27943359 9.69473267 34.00292969 C9.60218671 37.90298759 9.09255384 39.51210342 6.58740234 42.56787109 C4.07632863 44.56431449 3.13031761 45.31311124 0 45.25 C-0.639375 45.26289063 -1.27875 45.27578125 -1.9375 45.2890625 C-5.27632679 44.21406145 -6.79681762 42.31242769 -9 39.625 C-9.50061116 36.83215648 -9.70418481 34.65872951 -9.6640625 31.875 C-9.66884613 31.13926758 -9.67362976 30.40353516 -9.67855835 29.64550781 C-9.6819488 28.09568127 -9.67280592 26.54578239 -9.65185547 24.99609375 C-9.62507002 22.63118214 -9.65162417 20.27101498 -9.68359375 17.90625 C-9.68028949 16.39582292 -9.6738829 14.88539877 -9.6640625 13.375 C-9.67418365 12.6727832 -9.68430481 11.97056641 -9.69473267 11.24707031 C-9.60218671 7.34701241 -9.09255384 5.73789658 -6.58740234 2.68212891 C-4.07632863 0.68568551 -3.13031761 -0.06311124 0 0 Z " fill="#30095D" transform="translate(925,267.375)"/>
</svg>
